<?xml version="1.0" encoding="UTF-8"?>
<svg width="397px" height="399px" viewBox="0 0 397 399" version="1.1" xmlns="http://www.w3.org/2000/svg" xmlns:xlink="http://www.w3.org/1999/xlink">
    <!-- Generator: Sketch 47.1 (45422) - http://www.bohemiancoding.com/sketch -->
    <title>Path 2</title>
    <desc>Created with Sketch.</desc>
    <defs></defs>
    <g id="logo" stroke="none" stroke-width="1" fill="none" fill-rule="evenodd">
        <path d="M180.569147,0.585752608 C260.230698,2.12987031 309.207699,26.7806881 347.60331,71.8387544 C393.316199,125.483803 405.987533,198.741049 392.366789,253.146603 C366.030649,358.341465 299.34247,382.812715 267.448319,392.972532 C235.554169,403.132348 157.86661,397.709467 146.366327,363.054853 C134.866044,328.400238 161.007627,329.211634 156.140095,312.24892 C151.272563,295.286206 139.190058,312.24892 136.442865,292.210172 C133.695673,272.171425 148.965072,253.884424 156.140095,245.80052 C172.033051,227.894356 198.573851,184.61491 171.385646,145.2114 C146.252483,108.786235 89.5193356,104.970124 65.6118865,139.23403 C36.5121223,180.939507 48.8195031,223.558838 26.0413543,224.331912 C-3.73245686,225.342413 -8.74049974,156.994173 12.1820081,109.846596 C31.3953122,66.5506046 96.4509367,-1.04475062 180.569147,0.585752608 Z" id="Path-2" fill="#537FB7" transform="translate(198.495201, 199.051996) scale(-1, 1) rotate(270.000000) translate(-198.495201, -199.051996) "></path>
    </g>
</svg>